PathFileType  4	(X/Y/Z) D:\Research_projects\MuscleProsody\BulkSports2Dtrack\RetrackedSports2D\p1_sample60_cam2\p1_sample60_cam2_Sports2D\pose-3d
DataRate	CameraRate	NumFrames	NumMarkers	Units	OrigDataRate	OrigDataStartFrame	OrigNumFrames
60.0	60.0	14	22	m	60.0	292	780
Frame#	Time	Hip			RHip			RKnee			RAnkle			RBigToe			RSmallToe			RHeel			LHip			LKnee			LAnkle			LBigToe			LSmallToe			LHeel			Neck			Head			Nose			RShoulder			RElbow			RWrist			LShoulder			LElbow			LWrist			
		X1	Y1	Z1	X2	Y2	Z2	X3	Y3	Z3	X4	Y4	Z4	X5	Y5	Z5	X6	Y6	Z6	X7	Y7	Z7	X8	Y8	Z8	X9	Y9	Z9	X10	Y10	Z10	X11	Y11	Z11	X12	Y12	Z12	X13	Y13	Z13	X14	Y14	Z14	X15	Y15	Z15	X16	Y16	Z16	X17	Y17	Z17	X18	Y18	Z18	X19	Y19	Z19	X20	Y20	Z20	X21	Y21	Z21	X22	Y22	Z22	

293	4.8666667	0.8527484	0.8796267	0.0301000	0.7553126	0.8747672	0.0301000	0.7483310	0.4568516	0.1290000	0.7531659	0.1171048	0.0230000	0.7602677	-0.0046832	0.2179000	0.7054880	0.0126108	0.1804000	0.7698094	0.0878138	-0.0119000	0.9457543	0.8719042	0.0301000	0.9272345	0.4502318	0.1290000	0.9259902	0.1085432	0.0230000	0.9094785	-0.0090697	0.2179000	0.9688393	0.0048685	0.1804000	0.9146079	0.0878967	-0.0119000	0.8774706	1.4897306	0.0008000	0.8685735	1.7936866	0.0655000	0.8189833	1.6015177	0.1076000	0.6973235	1.4209352	-0.0127500	0.4949037	1.2958686	0.0702000	0.2292493	1.2783070	0.1076000	1.0597992	1.4031836	-0.0127500	1.2786097	1.2669505	0.0702000	1.5290165	1.1871679	0.1076000
294	4.8833333	0.8529809	0.8801605	0.0301000	0.7556437	0.8762896	0.0301000	0.7482532	0.4559559	0.1290000	0.7529001	0.1159548	0.0230000	0.7598558	-0.0040932	0.2179000	0.7058153	0.0132059	0.1804000	0.7698847	0.0882650	-0.0119000	0.9455103	0.8735832	0.0301000	0.9275809	0.4497427	0.1290000	0.9264244	0.1074853	0.0230000	0.9099090	-0.0096690	0.2179000	0.9691647	0.0048733	0.1804000	0.9145728	0.0880895	-0.0119000	0.8778546	1.4894676	0.0008000	0.8699560	1.7934194	0.0655000	0.8206350	1.6014427	0.1076000	0.6955314	1.4229301	-0.0127500	0.4795767	1.3142481	0.0702000	0.2084127	1.3253407	0.1076000	1.0617544	1.4041380	-0.0127500	1.2913131	1.2824025	0.0702000	1.5467851	1.2302309	0.1076000
295	4.9000000	0.8531305	0.8806031	0.0301000	0.7559349	0.8777001	0.0301000	0.7481004	0.4553975	0.1290000	0.7526239	0.1147668	0.0230000	0.7594063	-0.0035669	0.2179000	0.7061289	0.0137493	0.1804000	0.7699673	0.0887846	-0.0119000	0.9451574	0.8751171	0.0301000	0.9277594	0.4495462	0.1290000	0.9268440	0.1065516	0.0230000	0.9102355	-0.0103764	0.2179000	0.9693962	0.0048678	0.1804000	0.9145474	0.0885603	-0.0119000	0.8783707	1.4892052	0.0008000	0.8716241	1.7931125	0.0655000	0.8225194	1.6014279	0.1076000	0.6937790	1.4247111	-0.0127500	0.4656528	1.3319253	0.0702000	0.1922388	1.3707807	0.1076000	1.0638108	1.4049434	-0.0127500	1.3023567	1.2969799	0.0702000	1.5596702	1.2728828	0.1076000
296	4.9166667	0.8531680	0.8809211	0.0301000	0.7561459	0.8789521	0.0301000	0.7478637	0.4550718	0.1290000	0.7523651	0.1134922	0.0230000	0.7589333	-0.0031554	0.2179000	0.7064112	0.0141928	0.1804000	0.7701010	0.0892606	-0.0119000	0.9446910	0.8764490	0.0301000	0.9277488	0.4495188	0.1290000	0.9272240	0.1056725	0.0230000	0.9104914	-0.0111260	0.2179000	0.9695492	0.0048720	0.1804000	0.9145079	0.0891922	-0.0119000	0.8790128	1.4889208	0.0008000	0.8735219	1.7927635	0.0655000	0.8246123	1.6014910	0.1076000	0.6922284	1.4263050	-0.0127500	0.4536303	1.3486163	0.0702000	0.1816712	1.4137755	0.1076000	1.0658346	1.4056574	-0.0127500	1.3113915	1.3105346	0.0702000	1.5671346	1.3146184	0.1076000
297	4.9333333	0.8530767	0.8810932	0.0301000	0.7562506	0.8800300	0.0301000	0.7475419	0.4549025	0.1290000	0.7521587	0.1121017	0.0230000	0.7584484	-0.0029130	0.2179000	0.7066257	0.0144964	0.1804000	0.7703241	0.0895666	-0.0119000	0.9441247	0.8775611	0.0301000	0.9275366	0.4495705	0.1290000	0.9275396	0.1047973	0.0230000	0.9107036	-0.0118276	0.2179000	0.9696303	0.0048957	0.1804000	0.9144346	0.0898521	-0.0119000	0.8797560	1.4886174	0.0008000	0.8755789	1.7923571	0.0655000	0.8268786	1.6016304	0.1076000	0.6910572	1.4277416	-0.0127500	0.4439618	1.3639729	0.0702000	0.1774686	1.4533819	0.1076000	1.0676601	1.4063438	-0.0127500	1.3180674	1.3228452	0.0702000	1.5686586	1.3547357	0.1076000
298	4.9500000	0.8528540	0.8811220	0.0301000	0.7562390	0.8809509	0.0301000	0.7471520	0.4548382	0.1290000	0.7520391	0.1105920	0.0230000	0.7579689	-0.0028847	0.2179000	0.7067305	0.0146336	0.1804000	0.7706605	0.0896111	-0.0119000	0.9434920	0.8784699	0.0301000	0.9271326	0.4496468	0.1290000	0.9277704	0.1038969	0.0230000	0.9108900	-0.0123824	0.2179000	0.9696398	0.0049439	0.1804000	0.9143067	0.0904216	-0.0119000	0.8805616	1.4883254	0.0008000	0.8777126	1.7918779	0.0655000	0.8292644	1.6018362	0.1076000	0.6904354	1.4290373	-0.0127500	0.4370116	1.3775953	0.0702000	0.1801191	1.4886146	0.1076000	1.0691064	1.4070503	-0.0127500	1.3220460	1.3336153	0.0702000	1.5637991	1.3923470	0.1076000
299	4.9666667	0.8525127	0.8810372	0.0301000	0.7561132	0.8817467	0.0301000	0.7467304	0.4548301	0.1290000	0.7520294	0.1089802	0.0230000	0.7575230	-0.0030874	0.2179000	0.7067039	0.0145986	0.1804000	0.7711204	0.0893751	-0.0119000	0.9428439	0.8792058	0.0301000	0.9265739	0.4497042	0.1290000	0.9278985	0.1029546	0.0230000	0.9110599	-0.0127129	0.2179000	0.9695778	0.0050274	0.1804000	0.9140918	0.0908289	-0.0119000	0.8813829	1.4881005	0.0008000	0.8798356	1.7913169	0.0655000	0.8316964	1.6021004	0.1076000	0.6905009	1.4301862	-0.0127500	0.4330391	1.3890593	0.0702000	0.1898174	1.5184895	0.1076000	1.0699993	1.4077928	-0.0127500	1.3230105	1.3424922	0.0702000	1.5522597	1.4264197	0.1076000
300	4.9833333	0.8520790	0.8808879	0.0301000	0.7558838	0.8824419	0.0301000	0.7463190	0.4548219	0.1290000	0.7521349	0.1073016	0.0230000	0.7571459	-0.0035009	0.2179000	0.7065608	0.0144087	0.1804000	0.7717011	0.0889084	-0.0119000	0.9422413	0.8797910	0.0301000	0.9259135	0.4496987	0.1290000	0.9279049	0.1019667	0.0230000	0.9112134	-0.0127899	0.2179000	0.9694473	0.0051602	0.1804000	0.9137553	0.0910642	-0.0119000	0.8821756	1.4880159	0.0008000	0.8818634	1.7906708	0.0655000	0.8340972	1.6024234	0.1076000	0.6913363	1.4311561	-0.0127500	0.4321948	1.3979500	0.0702000	0.2064929	1.5420669	0.1076000	1.0701975	1.4085530	-0.0127500	1.3206933	1.3491045	0.0702000	1.5339430	1.4558521	0.1076000
301	5.0000000	0.8515860	0.8807210	0.0301000	0.7555664	0.8830425	0.0301000	0.7459538	0.4547554	0.1290000	0.7523417	0.1056105	0.0230000	0.7568722	-0.0040773	0.2179000	0.7063466	0.0140994	0.1804000	0.7723842	0.0883051	-0.0119000	0.9417410	0.8802260	0.0301000	0.9252064	0.4495890	0.1290000	0.9277732	0.1009516	0.0230000	0.9113504	-0.0126426	0.2179000	0.9692573	0.0053481	0.1804000	0.9132802	0.0911737	-0.0119000	0.8829066	1.4881427	0.0008000	0.8837226	1.7899415	0.0655000	0.8364031	1.6028136	0.1076000	0.6929562	1.4318953	-0.0127500	0.4345073	1.4039012	0.0702000	0.2298345	1.5585256	0.1076000	1.0696185	1.4092873	-0.0127500	1.3149286	1.3531134	0.0702000	1.5089923	1.4795942	0.1076000
302	5.0166667	0.8510623	0.8805621	0.0301000	0.7551773	0.8835424	0.0301000	0.7456635	0.4545851	0.1290000	0.7526193	0.1039733	0.0230000	0.7567298	-0.0047611	0.2179000	0.7061167	0.0137154	0.1804000	0.7731362	0.0876757	-0.0119000	0.9413832	0.8804939	0.0301000	0.9245027	0.4493422	0.1290000	0.9274973	0.0999441	0.0230000	0.9114778	-0.0123459	0.2179000	0.9690235	0.0055845	0.1804000	0.9126761	0.0912308	-0.0119000	0.8835566	1.4885282	0.0008000	0.8853584	1.7891386	0.0655000	0.8385669	1.6032810	0.1076000	0.6953081	1.4323498	-0.0127500	0.4398826	1.4066246	0.0702000	0.2592780	1.5672204	0.1076000	1.0682609	1.4099438	-0.0127500	1.3056973	1.3542451	0.0702000	1.4778412	1.4967435	0.1076000
303	5.0333333	0.8505273	0.8804171	0.0301000	0.7547307	0.8839303	0.0301000	0.7454689	0.4542968	0.1290000	0.7529286	0.1024562	0.0230000	0.7567353	-0.0055056	0.2179000	0.7059173	0.0133046	0.1804000	0.7739130	0.0871206	-0.0119000	0.9411873	0.8805713	0.0301000	0.9238435	0.4489420	0.1290000	0.9270845	0.0989754	0.0230000	0.9116043	-0.0119917	0.2179000	0.9687638	0.0058498	0.1804000	0.9119746	0.0913045	-0.0119000	0.8841133	1.4891867	0.0008000	0.8867361	1.7882784	0.0655000	0.8405507	1.6038301	0.1076000	0.6982770	1.4324823	-0.0127500	0.4481222	1.4059253	0.0702000	0.2939806	1.5677054	0.1076000	1.0662109	1.4104780	-0.0127500	1.2931397	1.3523024	0.0702000	1.4412398	1.5065826	0.1076000
304	5.0500000	0.8499982	0.8802881	0.0301000	0.7542375	0.8841890	0.0301000	0.7453774	0.4539185	0.1290000	0.7532312	0.1011203	0.0230000	0.7568904	-0.0062820	0.2179000	0.7057761	0.0129112	0.1804000	0.7746602	0.0867140	-0.0119000	0.9411556	0.8804390	0.0301000	0.9232606	0.4484009	0.1290000	0.9265528	0.0980671	0.0230000	0.9117330	-0.0116609	0.2179000	0.9684886	0.0061145	0.1804000	0.9112211	0.0914455	-0.0119000	0.8845645	1.4901039	0.0008000	0.8878373	1.7873801	0.0655000	0.8423192	1.6044628	0.1076000	0.7016879	1.4322826	-0.0127500	0.4589382	1.4017097	0.0702000	0.3328471	1.5597715	0.1076000	1.0636287	1.4108620	-0.0127500	1.2775507	1.3471850	0.0702000	1.4002179	1.5085975	0.1076000
305	5.0666667	0.8494991	0.8801889	0.0301000	0.7537095	0.8843006	0.0301000	0.7453831	0.4535196	0.1290000	0.7534950	0.1000215	0.0230000	0.7571841	-0.0070770	0.2179000	0.7057056	0.0125655	0.1804000	0.7753134	0.0864986	-0.0119000	0.9412845	0.8800918	0.0301000	0.9227786	0.4477728	0.1290000	0.9259259	0.0972458	0.0230000	0.9118576	-0.0114084	0.2179000	0.9681894	0.0063454	0.1804000	0.9104707	0.0916892	-0.0119000	0.8848994	1.4912410	0.0008000	0.8886557	1.7864665	0.0655000	0.8438390	1.6051861	0.1076000	0.7053192	1.4317703	-0.0127500	0.4719598	1.3939932	0.0702000	0.3746054	1.5435110	0.1076000	1.0607228	1.4110876	-0.0127500	1.2593836	1.3389244	0.0702000	1.3560146	1.5025092	0.1076000
306	5.0833333	0.8490580	0.8801423	0.0301000	0.7531657	0.8842627	0.0301000	0.7454736	0.4532006	0.1290000	0.7536960	0.0992092	0.0230000	0.7576034	-0.0078817	0.2179000	0.7057136	0.0122747	0.1804000	0.7758019	0.0864867	-0.0119000	0.9415748	0.8795474	0.0301000	0.9224145	0.4471543	0.1290000	0.9252284	0.0965578	0.0230000	0.9119605	-0.0112619	0.2179000	0.9678389	0.0065133	0.1804000	0.9097822	0.0920618	-0.0119000	0.8851139	1.4925338	0.0008000	0.8891915	1.7855690	0.0655000	0.8450784	1.6060137	0.1076000	0.7089268	1.4309853	-0.0127500	0.4867338	1.3829132	0.0702000	0.4178714	1.5193653	0.1076000	1.0577214	1.4111652	-0.0127500	1.2392532	1.3277107	0.0702000	1.3100380	1.4883158	0.1076000
